:SAMPLES-PER-SECOND 30
:FULLY-SPECIFIED
:DEGREES
63
root  20.2949 37.6274 3.28436 170.97 83.5758 170.791
RightUpLeg  -13.2751 0.80297 -0.822007
RightLeg  62.7512 11.9008 3.027
RightFoot  -0.947679 -1.54184 14.4146
RightToes  -1.74624e-010 -1.59028e-015 9.93923e-017
Spine  16.6138 -0.480775 -3.61776
Spine1  5.98342 -1.70166 -0.104396
HEad  -0.833747 -2.79876 4.62825
LeftShoulder1  9.93923e-017 0 1.22299e-017
LeftArm  17.31 12.8492 -79.177
LeftForeArm  -34.9327 -21.9657 8.20964
LeftHand  0.69252 5.30574 2.99385
RightShoulder  1.98785e-016 -4.96962e-017 1.55301e-017
RightArm  23.5024 -31.439 91.3161
RightForeArm  -31.4832 28.9917 -26.8694
RightHand  1.70688 -13.83 -6.38971
LeftUpLeg  -22.3048 -11.8163 -6.97813
LeftLeg  34.9006 -7.95997 1.93875
LeftFoot  -5.68579 -0.328959 4.66391
LeftToes  2.64666e-010 -8.50449e-011 8.41596e-012
64
root  22.2362 38.6023 3.20721 179.903 81.3793 179.54
RightUpLeg  -16.1679 0.676033 0.154914
RightLeg  59.8549 11.1322 1.33153
RightFoot  -1.03686 -1.19187 11.2697
RightToes  -1.74624e-010 -1.59028e-015 9.93923e-017
Spine  15.7641 -1.42317 -3.76835
Spine1  6.74807 -3.08716 1.88137
HEad  -1.33895 -2.56869 3.68535
LeftShoulder1  9.93923e-017 0 1.22299e-017
LeftArm  27.0692 8.75401 -80.2145
LeftForeArm  -46.5221 -26.4582 17.5212
LeftHand  0.814784 5.77931 -0.379033
RightShoulder  1.98785e-016 -4.96962e-017 1.55301e-017
RightArm  22.7626 -34.0317 89.9561
RightForeArm  -37.5204 27.7231 -25.5885
RightHand  2.06267 -14.5093 -9.83765
LeftUpLeg  -17.1263 -13.9601 -6.02823
LeftLeg  30.3158 -7.71644 1.48374
LeftFoot  -3.40185 -0.268718 2.946
LeftToes  2.64666e-010 -8.50449e-011 8.41596e-012
65
root  24.2764 39.3483 3.10307 -173.615 80.65 -174.201
RightUpLeg  -19.0895 1.52588 1.03126
RightLeg  55.2182 10.1699 -0.279854
RightFoot  -0.488293 -1.20998 10.9246
RightToes  -1.74624e-010 -1.59028e-015 9.93923e-017
Spine  14.4206 -1.90214 -3.70113
Spine1  6.95581 -3.75739 3.14091
HEad  -0.770866 -1.65593 3.04585
LeftShoulder1  9.93923e-017 0 1.22299e-017
LeftArm  21.1272 6.21934 -80.1431
LeftForeArm  -43.3065 -31.3609 19.6489
LeftHand  0.921549 6.45853 -2.09916
RightShoulder  1.98785e-016 -4.96962e-017 1.55301e-017
RightArm  22.3886 -37.8641 88.4185
RightForeArm  -45.765 26.402 -24.191
RightHand  2.11142 -14.5143 -10.4705
LeftUpLeg  -11.5325 -15.2717 -4.9975
LeftLeg  25.0126 -6.97765 1.32934
LeftFoot  -1.75976 -0.148107 1.39472
LeftToes  2.64666e-010 -8.50449e-011 8.41596e-012
66
root  26.3481 39.8797 2.99916 -165.88 80.953 -166.909
RightUpLeg  -22.2497 2.96723 1.97562
RightLeg  49.216 9.45451 -0.977224
RightFoot  -0.255833 -1.30086 11.5334
RightToes  -1.74624e-010 -1.59028e-015 9.93923e-017
Spine  12.7898 -2.10832 -3.97948
Spine1  6.50484 -4.14848 4.70207
HEad  -0.244334 0.0337679 2.78985
LeftShoulder1  9.93923e-017 0 1.22299e-017
LeftArm  17.057 5.46244 -79.7586
LeftForeArm  -40.8652 -36.5854 22.1092
LeftHand  0.944121 6.68969 -1.16013
RightShoulder  1.98785e-016 -4.96962e-017 1.55301e-017
RightArm  24.9598 -42.1461 86.2592
RightForeArm  -51.5339 25.0001 -22.944
RightHand  1.94015 -14.1951 -8.91863
LeftUpLeg  -6.20469 -12.9069 -4.00529
LeftLeg  19.8023 -8.78222 1.1684
LeftFoot  -0.292924 -0.0159978 0.129231
LeftToes  2.64666e-010 -8.50449e-011 8.41596e-012
67
root  28.3955 40.1958 2.9325 -161.285 80.9989 -162.321
RightUpLeg  -24.3257 3.36538 2.5465
RightLeg  41.4223 9.46502 -0.556324
RightFoot  -0.335194 -1.29979 11.5972
RightToes  -1.74624e-010 -1.59028e-015 9.93923e-017
Spine  11.6718 -2.39625 -5.37041
Spine1  6.06205 -4.87175 6.90196
HEad  -0.459905 1.75664 2.72528
LeftShoulder1  9.93923e-017 0 1.22299e-017
LeftArm  14.3623 5.11227 -79.0238
LeftForeArm  -38.6547 -41.6794 24.9604
LeftHand  0.968974 6.89544 0.081897
RightShoulder  1.98785e-016 -4.96962e-017 1.55301e-017
RightArm  30.8005 -45.8907 83.5444
RightForeArm  -54.008 23.3466 -21.7827
RightHand  1.75191 -13.8427 -7.04578
LeftUpLeg  -1.23022 -5.64816 -3.13225
LeftLeg  15.7274 -15.3965 1.09553
LeftFoot  1.1019 0.0860084 -0.65795
LeftToes  2.64666e-010 -8.50449e-011 8.41596e-012
68
root  30.4437 40.2598 2.87604 -161.585 80.4906 -162.41
RightUpLeg  -25.0731 1.94869 2.89705
RightLeg  31.5664 10.5328 0.508441
RightFoot  0.065361 -1.39398 12.0427
RightToes  -1.74624e-010 -1.59028e-015 9.93923e-017
Spine  10.7499 -3.00662 -7.09254
Spine1  5.93028 -5.88497 8.88158
HEad  -1.00975 2.93699 2.75577
LeftShoulder1  9.93923e-017 0 1.22299e-017
LeftArm  13.3327 4.18311 -77.8697
LeftForeArm  -37.9601 -45.7017 27.5379
LeftHand  1.02061 7.25974 0.280949
RightShoulder  1.98785e-016 -4.96962e-017 1.55301e-017
RightArm  37.7334 -49.2604 80.8374
RightForeArm  -55.1539 21.658 -20.5788
RightHand  1.58544 -13.4728 -5.3554
LeftUpLeg  3.40864 -1.06625 -1.74972
LeftLeg  12.8018 -20.1217 0.710733
LeftFoot  1.80649 0.131825 -0.951388
LeftToes  2.64666e-010 -8.50449e-011 8.41596e-012
69
root  32.4873 40.121 2.789 -161.881 79.7372 -163.055
RightUpLeg  -25.6457 -0.316593 3.65335
RightLeg  20.0636 11.7201 1.24138
RightFoot  1.45795 -1.71625 13.3725
RightToes  -1.74624e-010 -1.59028e-015 9.93923e-017
Spine  9.38883 -3.83458 -7.8705
Spine1  5.89266 -6.82952 10.188
HEad  -1.64859 3.53963 2.74175
LeftShoulder1  9.93923e-017 0 1.22299e-017
LeftArm  13.6897 2.72592 -76.6261
LeftForeArm  -37.9057 -47.9844 29.1717
LeftHand  1.04182 7.41303 -0.153672
RightShoulder  1.98785e-016 -4.96962e-017 1.55301e-017
RightArm  41.8889 -52.7919 78.0159
RightForeArm  -55.1962 20.5983 -18.4913
RightHand  1.47135 -13.2529 -4.01692
LeftUpLeg  7.40926 0.76338 -0.121953
LeftLeg  10.1694 -22.871 0.278099
LeftFoot  2.05981 0.191472 -1.36488
LeftToes  2.64666e-010 -8.50449e-011 8.41596e-012
70
root  34.5296 39.8445 2.69427 -160.897 79.0404 -162.708
RightUpLeg  -26.1261 -0.114132 3.68517
RightLeg  8.17887 8.63729 1.80626
RightFoot  2.47598 -2.09912 15.2975
RightToes  -1.74624e-010 -1.59028e-015 9.93923e-017
Spine  7.89849 -4.50342 -8.06139
Spine1  5.97122 -7.54263 11.2266
HEad  -2.82712 3.74062 2.59937
LeftShoulder1  9.93923e-017 0 1.22299e-017
LeftArm  14.1755 1.21967 -76.0154
LeftForeArm  -36.578 -48.4749 29.6445
LeftHand  1.02455 7.29226 -0.576537
RightShoulder  1.98785e-016 -4.96962e-017 1.55301e-017
RightArm  39.2107 -55.9608 74.5734
RightForeArm  -50.7581 20.1175 -13.9438
RightHand  1.45233 -13.4114 -3.38253
LeftUpLeg  10.5335 1.59554 1.61201
LeftLeg  8.7869 -24.953 -0.241844
LeftFoot  2.49305 0.334054 -2.3395
LeftToes  2.64666e-010 -8.50449e-011 8.41596e-012
71
root  36.6715 39.3812 2.61812 -161.582 78.5939 -163.48
RightUpLeg  -25.9204 3.81109 1.86031
RightLeg  -1.13279 0.0265745 3.3056
RightFoot  1.4219 -2.15138 16.7488
RightToes  -1.74624e-010 -1.59028e-015 9.93923e-017
Spine  6.59681 -4.88666 -8.78658
Spine1  6.64161 -8.12361 12.304
HEad  -4.54419 3.82196 2.56471
LeftShoulder1  9.93923e-017 0 1.22299e-017
LeftArm  14.0069 0.298004 -76.3249
LeftForeArm  -34.1753 -47.2483 28.9043
LeftHand  0.972661 6.92324 -0.18001
RightShoulder  1.98785e-016 -4.96962e-017 1.55301e-017
RightArm  30.0787 -58.0498 70.789
RightForeArm  -40.7813 18.7466 -7.36707
RightHand  1.49227 -13.7648 -3.32094
LeftUpLeg  13.4864 1.91696 2.98225
LeftLeg  9.48195 -26.2895 -0.887395
LeftFoot  2.59051 0.46985 -3.29478
LeftToes  2.64666e-010 -8.50449e-011 8.41596e-012
72
root  38.935 38.7178 2.52662 -163.171 78.3179 -164.806
RightUpLeg  -25.9829 3.93334 2.35995
RightLeg  -4.03275 -3.60346 3.86408
RightFoot  0.364863 -1.73849 14.6808
RightToes  -1.74624e-010 -1.59028e-015 9.93923e-017
Spine  5.15068 -5.25301 -9.37601
Spine1  7.95122 -8.75078 13.0838
HEad  -5.86142 4.05921 2.81609
LeftShoulder1  9.93923e-017 0 1.22299e-017
LeftArm  13.8261 0.601941 -77.2409
LeftForeArm  -33.0581 -44.4156 27.0263
LeftHand  0.865694 6.26786 1.66574
RightShoulder  1.98785e-016 -4.96962e-017 1.55301e-017
RightArm  20.2133 -59.6325 67.2673
RightForeArm  -30.0908 16.2379 -1.89499
RightHand  1.53605 -13.9594 -3.61146
LeftUpLeg  16.6299 0.618529 3.65264
LeftLeg  11.0162 -25.544 -1.48029
LeftFoot  2.17894 0.588655 -4.26458
LeftToes  2.64666e-010 -8.50449e-011 8.41596e-012
73
root  41.1888 37.933 2.39241 -161.302 77.796 -162.885
RightUpLeg  -27.4851 3.95327 3.82773
RightLeg  0.51479 -5.34336 3.05586
RightFoot  3.52583 -1.04677 7.44627
RightToes  -1.74624e-010 -1.59028e-015 9.93923e-017
Spine  3.90741 -5.67479 -7.83152
Spine1  8.82338 -9.18185 12.9262
HEad  -6.4029 4.27245 3.05437
LeftShoulder1  9.93923e-017 0 1.22299e-017
LeftArm  14.5123 2.16884 -78.7329
LeftForeArm  -34.1156 -40.1364 24.378
LeftHand  0.736608 5.63846 4.13139
RightShoulder  1.98785e-016 -4.96962e-017 1.55301e-017
RightArm  16.1538 -61.6289 64.5603
RightForeArm  -25.7741 14.6565 0.214651
RightHand  1.5959 -14.0619 -4.29032
LeftUpLeg  18.5429 -3.19152 4.3158
LeftLeg  14.331 -22.5349 -2.97754
LeftFoot  3.12388 0.900694 -6.10483
LeftToes  2.64666e-010 -8.50449e-011 8.41596e-012
74
root  43.3377 37.0369 2.25088 -155.336 76.8574 -156.386
RightUpLeg  -30.393 2.39739 7.63954
RightLeg  11.1638 -3.04501 -0.0119492
RightFoot  8.96997 -0.0714297 0.268498
RightToes  -1.74624e-010 -1.59028e-015 9.93923e-017
Spine  4.2093 -5.79738 -3.7235
Spine1  8.26948 -8.70363 11.6573
HEad  -7.3014 4.02214 3.02283
LeftShoulder1  9.93923e-017 0 1.22299e-017
LeftArm  15.9942 4.47623 -81.1606
LeftForeArm  -35.8256 -34.6382 21.5222
LeftHand  0.665018 5.3953 5.93073
RightShoulder  1.98785e-016 -4.96962e-017 1.55301e-017
RightArm  13.3764 -63.0285 63.9905
RightForeArm  -24.2288 13.6735 1.36989
RightHand  1.64273 -14.1839 -4.72826
LeftUpLeg  17.7707 -5.4953 7.01914
LeftLeg  23.1181 -21.3621 -6.14965
LeftFoot  7.68788 1.5615 -8.21653
LeftToes  2.64666e-010 -8.50449e-011 8.41596e-012
75
root  45.2646 36.2361 2.15869 -147.88 76.1538 -147.44
RightUpLeg  -32.25 0.151405 12.9408
RightLeg  21.8246 1.69388 -3.68772
RightFoot  10.1296 0.377533 -1.83749
RightToes  -1.74624e-010 -1.59028e-015 9.93923e-017
Spine  6.22967 -5.303 0.874585
Spine1  7.30527 -7.27097 9.91882
HEad  -9.37308 3.38796 3.09439
LeftShoulder1  9.93923e-017 0 1.22299e-017
LeftArm  17.9627 7.49346 -84.2494
LeftForeArm  -38.2694 -28.6439 18.6033
LeftHand  0.615934 5.28893 7.50634
RightShoulder  1.98785e-016 -4.96962e-017 1.55301e-017
RightArm  4.52739 -61.3466 67.4363
RightForeArm  -18.0523 10.8033 4.04386
RightHand  1.59047 -14.1506 -4.04327
LeftUpLeg  14.6966 -4.02583 11.2008
LeftLeg  35.809 -21.433 -8.45928
LeftFoot  15.4293 2.51798 -9.59541
LeftToes  2.64666e-010 -8.50449e-011 8.41596e-012
76
root  46.9302 35.8584 2.12161 -141.73 75.9385 -139.761
RightUpLeg  -32.0588 2.57789 14.5784
RightLeg  29.5202 0.466122 -5.65406
RightFoot  4.94074 0.247435 -1.56132
RightToes  -1.74624e-010 -1.59028e-015 9.93923e-017
Spine  8.09523 -4.63039 3.72359
Spine1  7.56085 -5.90739 9.03514
HEad  -11.291 2.80764 3.71525
LeftShoulder1  9.93923e-017 0 1.22299e-017
LeftArm  13.6237 11.6581 -86.5564
LeftForeArm  -36.2077 -22.7212 11.9191
LeftHand  0.504567 4.93248 9.43217
RightShoulder  1.98785e-016 -4.96962e-017 1.55301e-017
RightArm  -6.32979 -55.7155 73.2837
RightForeArm  -8.94557 7.02187 6.45755
RightHand  1.48932 -13.9506 -2.93654
LeftUpLeg  9.60895 -4.41806 13.3152
LeftLeg  47.8039 -16.8628 -6.55471
LeftFoot  20.6443 3.17708 -10.1683
LeftToes  2.64666e-010 -8.50449e-011 8.41596e-012
